# xmcd
#
# Track frame offsets: 
#        150
#        11316
#        27141
#        39911
#        51420
#        65060
#        78802
#        92158
#        104445
#        115589
#        129325
#        143890
#        159095
#        168940
#        180602
#        199755
#        210799
#        224369
#        246110
#        255899
#        269995
#        283777
#
# Disc length: 4005 seconds
#
# Revision: 0
# Processed by: cddbd v1.5.2PL0 Copyright (c) Steve Scherf et al.
# Submitted via: ExactAudioCopy v0.99pb4
#
DISCID=290fa316
DTITLE=Waylon Jennings - The Essential Waylon Jennigs
DYEAR=2007
DGENRE=Country
TTITLE0=This Time
TTITLE1=It's Not Supposed To Be That Way
TTITLE2=I'm a Ramblin' Man
TTITLE3=Rainy Day Woman
TTITLE4=Amanda
TTITLE5=Bob Wills Is Still the King
TTITLE6=Are You Sure Hank Done It This Way
TTITLE7=Waymore's Blues
TTITLE8=Dreaming My Dreams With You
TTITLE9=Good Hearted Woman
TTITLE10=Are You Ready For the Country
TTITLE11=Luckenbach, Texas (Back To the Basics Of Love)
TTITLE12=The Wurlitzer Prize (I Don't Want To Get Over You)
TTITLE13=Mammas Don't Let Your Babies Grow Up To Be Cowboys
TTITLE14=I've Always Been Crazy
TTITLE15=A Long Time Ago
TTITLE16=Don't You Think This Outlaw Bit's Done Got Out Of Hand
TTITLE17=I Ain't Living Long Like This
TTITLE18=Theme From the Dukes Of Hazzard (Good Ol' Boys)
TTITLE19=Storms Never Last
TTITLE20=Drinkin' And Dreamin'
TTITLE21=Rose In Paradise
EXTD=
EXTT0=
EXTT1=
EXTT2=
EXTT3=
EXTT4=
EXTT5=
EXTT6=
EXTT7=
EXTT8=
EXTT9=
EXTT10=
EXTT11=
EXTT12=
EXTT13=
EXTT14=
EXTT15=
EXTT16=
EXTT17=
EXTT18=
EXTT19=
EXTT20=
EXTT21=
PLAYORDER=
